<svg width="543" height="238" viewBox="0 0 543 238" fill="none" xmlns="http://www.w3.org/2000/svg">
<path d="M188.384 65.8938L188.525 62.8321L206.902 63.4741C206.972 60.7651 207.064 58.0562 207.036 55.3402C207.022 53.9787 207.036 52.6242 206.994 51.2627L206.93 49.2028C206.909 48.3704 206.874 47.4956 206.81 46.642L198.246 48.1517L198.352 51.1428L203.65 51.0088C203.734 54.402 203.72 57.7952 203.636 61.1814L188.588 60.8004C188.673 57.3014 188.694 53.8094 188.574 50.4021L188.56 49.8659L214.641 28.1592C215.283 32.6247 216.045 36.9703 216.425 41.5698C216.574 43.8555 216.813 46.2046 216.877 48.4409L216.983 52.4267C217.039 57.4213 216.962 62.3665 216.708 67.2694L213.448 67.1142C213.653 62.8392 213.78 58.543 213.731 54.2044L213.688 50.9453L213.54 46.8113L213.152 41.4076C212.976 39.6298 212.729 37.8874 212.51 36.1308L191.714 48.06L191.777 48.97L191.826 50.2962C191.925 52.7653 191.911 55.2838 191.904 57.7881L200.44 57.8798C200.475 56.6876 200.44 55.4954 200.44 54.3032L195.142 54.3455C195.149 52.7583 195.093 51.0017 195.043 49.5908C195.022 48.7654 194.973 48.0247 194.923 47.2416L209.66 41.1607C209.914 43.8837 210.14 47.0018 210.203 49.492C210.281 51.4532 210.302 53.4002 210.302 55.3402C210.309 59.2273 210.21 63.0931 210.013 66.9449L188.391 65.9008L188.384 65.8938Z" fill="url(#paint0_linear_1688_141)"/>
<path d="M185.773 92.2847L186.218 89.1949L204.447 91.6287C205.145 86.2884 205.738 80.927 206.189 75.5514L197.583 74.853L197.251 78.4367L202.528 78.9305C202.239 82.3026 201.837 85.6676 201.413 89.0256L186.479 87.1349C187.431 80.0381 188.003 72.9413 188.384 65.8938L216.693 67.2624C216.221 77.0682 215.198 86.7328 213.836 96.3058L210.612 95.8402C211.798 87.4595 212.764 79.0293 213.265 70.4933L191.481 69.16C191.149 74.2393 190.705 79.3327 190.098 84.419L198.577 85.4066C198.718 84.2144 198.881 83.0292 198.979 81.837L193.71 81.2868C194.027 77.9993 194.366 74.719 194.563 71.4316L209.681 72.4757C209.173 80.158 208.306 87.7769 207.212 95.3535L185.78 92.2847H185.773Z" fill="url(#paint1_linear_1688_141)"/>
<path d="M180.983 118.676L181.632 115.6L199.628 119.388C200.729 114.125 201.752 108.849 202.633 103.544L194.119 102.112L193.498 105.667L198.718 106.598C198.168 109.935 197.477 113.251 196.806 116.566L182.055 113.547C183.53 106.478 184.771 99.3886 185.78 92.2917L213.836 96.3128C212.517 105.9 210.661 115.339 208.672 124.735L205.491 124.037C207.261 115.812 208.863 107.53 210.118 99.1628L188.546 95.8684C187.777 100.955 186.888 106.034 185.879 111.099L194.253 112.743L194.951 109.216L189.738 108.242L191.431 98.4362L206.393 100.814L204.425 112.101L202.125 123.303L180.976 118.683L180.983 118.676Z" fill="url(#paint2_linear_1688_141)"/>
<path d="M173.971 143.134L174.952 140.425L192.179 146.851C194.204 141.744 195.607 136.361 196.983 131.113L188.588 129.102C188.341 130.294 188.003 131.416 187.685 132.545L192.814 133.892C191.847 137.151 191.085 140.474 189.809 143.634L175.615 138.626C176.885 135.564 177.541 132.298 178.521 129.144C179.396 125.836 180.158 122.153 180.983 118.683L208.672 124.735C206.683 133.779 204.143 144.156 200.256 153.751L197.237 152.53C198.725 148.319 200.475 144.192 201.554 139.853C202.147 137.723 202.81 135.529 203.332 133.441L204.743 127.296L183.46 122.471C182.86 124.954 182.345 127.6 181.682 129.949L179.707 136.933L187.826 139.557L188.793 136.143L183.706 134.661L185.012 130.076L186.147 125.236L200.912 128.658C200.143 132.326 199.064 136.157 197.957 139.987C196.983 143.846 195.346 147.486 194.062 151.246L173.985 143.141L173.971 143.134Z" fill="url(#paint3_linear_1688_141)"/>
<path d="M162.218 164.798C162.818 164.036 163.312 163.211 163.827 162.392L179.191 172.494C180.623 170.152 182.211 167.895 183.509 165.475C184.8 163.048 186.161 160.657 187.382 158.195L179.622 154.407C179.149 155.479 178.528 156.488 177.992 157.525L182.683 159.987L180.264 164.473C179.431 165.955 178.472 167.359 177.583 168.812L164.864 160.763C168.525 155.211 171.361 149.208 173.978 143.141L200.263 153.751C196.306 163.331 191.353 172.473 185.512 180.974L182.832 179.112C187.777 171.726 192.412 164.05 195.826 155.775L175.812 147.077C173.929 151.535 171.636 155.803 169.209 160.001L176.539 164.382C177.202 163.401 177.717 162.329 178.288 161.292L173.661 158.703C175.17 155.909 176.736 153.137 177.95 150.195L191.741 156.481C188.539 163.754 184.454 170.604 180.01 177.157L162.225 164.812L162.218 164.798Z" fill="url(#paint4_linear_1688_141)"/>
<path d="M145.951 183.563L148.081 181.567L160.984 194.674C162.945 192.762 164.772 190.709 166.67 188.727C168.532 186.716 170.211 184.537 171.989 182.448L165.245 177.059L162.987 179.775L167.037 183.196C164.934 185.87 162.494 188.247 160.187 190.745L149.457 180.184C154.141 175.401 158.409 170.244 162.225 164.798L185.505 180.967C179.678 189.489 172.793 197.192 165.351 204.233L163.121 201.855C166.423 198.9 169.379 195.584 172.433 192.367C175.255 188.939 178.225 185.63 180.751 181.962L163.143 169.066L160.998 172.015L158.656 174.816C157.125 176.713 155.545 178.561 153.824 180.297L160.053 186.131L162.494 183.542L158.529 180.022C160.532 177.539 162.698 175.182 164.568 172.6L176.645 181.757C171.82 188.029 166.585 193.997 160.772 199.344L145.958 183.556L145.951 183.563Z" fill="url(#paint5_linear_1688_141)"/>
<path d="M126.148 198.751C126.995 198.272 127.778 197.686 128.596 197.164L138.607 212.592C140.892 211.083 143.206 209.601 145.365 207.915C147.566 206.286 149.781 204.67 151.848 202.864L146.346 196.212C145.435 196.96 144.554 197.75 143.615 198.462L146.882 202.638C144.13 204.628 141.499 206.794 138.614 208.592L130.219 196.092C135.785 192.353 141.097 188.198 145.943 183.563L165.343 204.233C157.873 211.245 149.725 217.502 141.005 222.892L139.298 220.119C146.818 215.435 153.915 210.116 160.553 204.261L146 188C144.173 189.616 142.261 191.147 140.399 192.734C138.473 194.244 136.483 195.661 134.536 197.143L139.46 204.113L142.317 201.989L139.15 197.743C141.767 195.894 144.18 193.792 146.635 191.739L156.56 203.189C150.621 208.395 144.173 212.98 137.506 217.199L126.155 198.765L126.148 198.751Z" fill="url(#paint6_linear_1688_141)"/>
<path d="M108.491 207.675L108.95 207.499L112.301 225.883C113.81 225.298 115.518 224.698 116.872 224.127L120.639 222.455C123.179 221.396 125.584 220.063 128.032 218.829L123.99 211.203L120.851 212.818L123.2 217.566C120.138 219.104 117.098 220.43 113.831 221.749L109.253 207.393L109.486 207.302L110.622 206.794L112.893 205.785C114.417 205.143 115.92 204.423 117.387 203.633C120.385 202.187 123.256 200.459 126.149 198.766L141.013 222.899L134.367 226.772L127.503 230.299L120.42 233.46L108.498 237.975V234.49L118.015 230.892L119.129 230.462L119.891 230.123L121.422 229.446L124.477 228.084C128.491 226.172 132.484 224.197 136.272 221.897L125.281 203.048C123.2 204.332 121.041 205.453 118.868 206.54C116.731 207.711 114.488 208.635 112.279 209.63L115.644 217.474L118.89 216.028L116.66 211.217C119.546 209.876 122.382 208.409 125.168 206.857L132.596 220.07C130.918 221.107 129.097 221.919 127.355 222.85C125.605 223.774 123.835 224.656 122.001 225.425L119.278 226.631L117.916 227.238C117.465 227.435 116.696 227.703 116.103 227.936L108.498 230.807V207.675H108.491Z" fill="url(#paint7_linear_1688_141)"/>
<path d="M90.8339 198.751L93.3523 200.219L84.0897 216.106C86.4318 217.538 88.8586 218.814 91.3136 220.042C93.7262 221.354 96.2658 222.412 98.7772 223.541L102.178 215.605L98.9607 214.173L96.7314 218.984C93.6486 217.552 90.6293 215.986 87.6593 214.335L95.0313 201.206C96.4563 202.095 97.9871 202.758 99.4545 203.549C100.929 204.332 102.417 205.072 103.948 205.707L107.701 207.372L108.491 207.668V237.953L96.5692 233.438L89.4864 230.278L82.6224 226.751L75.9771 222.878L77.6842 220.098L83.4196 223.456C85.3525 224.536 87.356 225.509 89.3242 226.532C91.2712 227.59 93.3594 228.416 95.384 229.347L96.9149 230.024C97.4863 230.264 97.7684 230.433 98.6926 230.765L103.454 232.564L107.433 210.751L106.791 210.504L106.467 210.384L106.304 210.321L105.916 210.144L102.601 208.663C100.365 207.746 98.234 206.547 96.0613 205.453L92.0613 212.994L95.2218 214.617L97.5709 209.869C98.9748 210.638 100.442 211.238 101.895 211.894L104.075 212.868L105.119 213.333L105.761 213.573L101.176 228.035L99.2781 227.315L97.9166 226.716L95.1936 225.509C93.3664 224.733 91.5746 223.88 89.8321 222.941C86.2696 221.206 82.8764 219.188 79.469 217.178L90.8198 198.744L90.8339 198.751Z" fill="url(#paint8_linear_1688_141)"/>
<path d="M71.0389 183.563L73.1623 185.566L60.9015 199.266C62.9544 201.079 65.0919 202.801 67.18 204.571C69.3387 206.264 71.5609 207.859 73.7548 209.51L78.7353 202.455L75.8994 200.339L72.7319 204.585C69.9595 202.617 67.3917 200.388 64.7815 198.215L74.6437 186.836C79.6877 191.274 85.1902 195.154 90.8479 198.751L75.9841 222.885C67.2647 217.495 59.1238 211.238 51.646 204.226L53.8752 201.848C60.316 207.922 67.2788 213.439 74.7354 218.208L86.6152 199.901C84.5765 198.547 82.5095 197.242 80.5836 195.732C78.6154 194.279 76.6401 192.84 74.7989 191.224L69.3599 197.806C70.277 198.561 71.1588 199.351 72.1041 200.071L75.3703 195.894C77.9664 197.764 80.4355 199.81 83.1585 201.503L74.7143 214.088C68.1606 209.693 61.9315 204.804 56.2173 199.351L71.0318 183.563H71.0389Z" fill="url(#paint9_linear_1688_141)"/>
<path d="M54.764 164.798L56.4712 167.14L41.6356 178.004L44.0694 181.327L46.7007 184.494C48.429 186.632 50.2209 188.706 52.1468 190.66L58.4465 184.755L56.0197 182.187L52.0551 185.708C49.9105 183.069 47.6178 180.551 45.6143 177.807L57.607 168.706C61.6704 173.976 66.0794 179.034 71.0317 183.563L51.6318 204.233C44.1893 197.199 37.3041 189.496 31.4771 180.967L34.1578 179.105C39.2159 186.441 45.064 193.157 51.3073 199.443L66.6156 183.888C64.8661 182.187 63.2506 180.353 61.5575 178.597C59.8997 176.812 58.4182 174.872 56.838 173.024L50.1715 178.35L52.4431 181.08L56.4924 177.658C58.4606 180.177 60.7603 182.399 62.9261 184.748L52.1256 195.379C46.5949 189.736 41.5297 183.627 36.9796 177.136L54.764 164.791V164.798Z" fill="url(#paint10_linear_1688_141)"/>
<path d="M43.0112 143.134C43.3499 144.029 43.7872 144.89 44.1752 145.765L27.315 153.095C29.4666 158.16 32.0556 163.02 34.821 167.775L42.2352 163.345C41.5721 162.371 41.0642 161.313 40.4928 160.283L35.865 162.872C34.2425 159.881 32.5847 156.911 31.2725 153.772L44.9724 147.529C47.6249 153.595 51.0534 159.302 54.7711 164.805L31.4912 180.974C25.643 172.473 20.6908 163.331 16.7402 153.751L19.7596 152.53C23.2657 160.735 27.2091 168.791 32.2037 176.177L50.4396 164.191C49.1839 162.117 47.766 160.135 46.6302 157.997C45.5015 155.853 44.2952 153.751 43.2158 151.585L35.5476 155.331C36.0273 156.41 36.6481 157.426 37.1913 158.477L41.8825 156.015L44.14 160.213C44.916 161.602 45.826 162.914 46.6584 164.269L33.8545 172.375C29.5019 165.736 26.0522 158.548 22.9341 151.246L43.0112 143.141V143.134Z" fill="url(#paint11_linear_1688_141)"/>
<path d="M36.0059 118.676L36.7113 121.744L18.7787 125.808C19.4066 128.432 19.9145 131.028 20.6482 133.673L22.8986 141.61L31.11 138.95L30.1506 135.564L25.0643 137.045C24.0978 133.779 23.209 130.499 22.5176 127.197L37.184 123.797C37.6002 125.518 37.967 127.416 38.4256 128.989L39.78 133.765C40.5631 136.989 41.974 140.001 43.0181 143.141L16.7329 153.751C12.8459 144.156 10.3063 133.779 8.31689 124.735L11.4985 124.037C12.5002 128.185 13.2339 132.121 14.4684 136.446L16.2956 142.887C16.9375 145.024 17.7841 147.098 18.5248 149.2L38.9688 141.574C37.1628 137.045 35.9918 132.467 34.7078 127.628L26.4047 129.617C26.6516 130.802 26.9902 131.931 27.3147 133.067L32.4433 131.719C33.3534 134.76 34.0518 137.871 35.251 140.82L20.9656 145.864C19.4771 142.174 18.6235 138.28 17.4807 134.478C16.486 130.696 15.7382 127.035 14.8564 123.303L36.0059 118.683V118.676Z" fill="url(#paint12_linear_1688_141)"/>
<path d="M31.2091 92.2847L31.6677 95.3745L13.4882 98.154C14.2924 103.473 15.2236 108.778 16.2747 114.048L24.7472 112.383L24.0417 108.842L18.8285 109.815L17.1001 99.8118L31.971 97.4486L33.8264 108.08L36.0062 118.683L8.31723 124.735C6.32785 115.339 4.47251 105.9 3.15332 96.3128L6.37723 95.8472C7.53417 104.235 9.10733 112.524 10.8075 120.771L32.1615 116.277C31.1033 111.219 30.1227 106.154 29.2762 101.068L20.8602 102.485L21.481 106.027L26.7013 105.096C27.2374 108.369 27.9217 111.621 28.5778 114.88L13.7351 117.921C12.176 110.457 10.8569 102.93 9.77751 95.3534L31.2091 92.2847Z" fill="url(#paint13_linear_1688_141)"/>
<path d="M28.6059 65.8938C28.6553 66.9167 28.6835 67.9326 28.7682 68.9625L10.4123 70.0842C10.758 75.4738 11.2307 80.8564 11.8726 86.2037L20.4509 85.202C20.3098 84.0098 20.1476 82.8176 20.0418 81.6254L14.772 82.1756C14.4475 78.8036 14.0948 75.4386 13.8973 72.0524L28.9163 71.0154C29.3819 78.084 30.1861 85.1879 31.2161 92.2847L3.1603 96.3058C1.79878 86.7328 0.775875 77.0682 0.303223 67.2624L3.56241 67.1072C3.98568 75.6572 4.81106 84.1227 5.91156 92.5246L27.5407 89.6322C26.8776 84.5389 26.3132 79.4526 25.8899 74.3592L17.3822 75.0506L17.7138 78.6272L22.9905 78.1334C23.2727 81.4208 23.6678 84.7011 24.084 87.9815L9.05082 89.8862C8.03497 82.2955 7.40712 74.6343 6.9909 66.9379L28.613 65.8938H28.6059Z" fill="url(#paint14_linear_1688_141)"/>
<path d="M28.4366 49.8588L10.765 39.7215C10.3841 43.016 10.123 46.6984 10.0384 49.8165C9.93256 52.5466 9.93962 55.2626 9.95373 57.9715L18.5885 57.8798C18.5532 56.6876 18.5885 55.5025 18.5885 54.3102L13.2905 54.2679C13.2835 52.5678 13.3399 50.8888 13.3963 49.1675C13.4528 47.3827 13.5656 45.5838 13.6926 43.8061L28.4366 49.8588V50.2327C28.359 51.9329 28.3448 53.6612 28.3448 55.3966C28.3448 58.8675 28.4295 62.3735 28.6059 65.8938L0.296095 67.2623C0.0350779 62.3665 -0.0425218 57.4213 0.0209688 52.4196L0.126787 48.4338C0.190277 46.1975 0.430131 43.8484 0.578275 41.5627C0.952165 36.9632 1.71405 32.6176 2.36307 28.1521L5.29775 30.593C4.76866 34.092 4.28895 37.5417 3.87979 41.083L3.49179 46.4868C3.4283 47.3827 3.39303 48.321 3.37892 49.1111L3.32954 50.7477C3.21666 55.1074 3.26605 59.4177 3.41419 63.7139L25.2268 62.952C25.1562 60.4265 25.0786 57.8939 25.0998 55.3966C25.1139 54.148 25.0927 52.8852 25.1421 51.6507L25.2197 49.3015L16.7402 47.8271L16.6273 51.0934L21.9252 51.2274C21.8406 54.4584 21.8617 57.7246 21.9393 60.9979L6.7933 61.3859C6.70159 57.513 6.67338 53.6401 6.80741 49.7248C6.82152 48.8148 6.89207 47.0653 6.99788 45.739C7.11076 44.321 7.16014 42.8819 7.31534 41.4922C7.62574 38.6915 7.97846 35.9473 8.39468 33.1749L28.4577 49.8729L28.4366 49.8588Z" fill="url(#paint15_linear_1688_141)"/>
<path d="M45.4097 45.3298L42.3339 46.1482L37.4663 28.4131L21.7911 32.6035L24.9939 40.6809L28.0485 39.8626L26.6023 34.7622L36.2741 32.1802L40.281 46.6914L28.4365 49.8518L2.35596 28.1521C6.53928 26.7906 10.5533 25.161 14.9624 24.131L24.5354 21.5702L37.9742 17.9795L38.8278 21.1258L26.9903 24.2933L20.5637 26.0146C17.2057 26.974 13.6996 27.7077 10.4828 28.8787L26.0873 47.1217L36.3376 44.3845L34.0448 36.166L30.5952 37.0902L32.0343 42.1906L24.7047 44.1447L15.9218 30.8117L39.7308 24.4485L45.4097 45.3369V45.3298Z" fill="url(#paint16_linear_1688_141)"/>
<path d="M71.7441 38.5575L68.6613 39.2982L64.1958 21.4573C59.046 22.6425 53.9526 23.997 48.8663 25.3726L51.0744 33.7181L54.5522 32.7869L53.2119 27.6583C56.4287 26.7764 59.6597 25.937 62.9118 25.1892L66.6013 39.785C59.5186 41.4357 52.4782 43.4956 45.4096 45.3228L37.9741 17.9724C46.9334 15.588 55.8573 13.1118 64.9506 11.0308L65.7336 14.1982C57.7338 16.0324 49.8469 18.1558 41.9599 20.2863L47.6317 41.3581L62.7072 37.3653L60.5909 29.0974C59.434 29.3654 58.2841 29.6758 57.1342 29.9862L58.4675 35.1149L48.824 37.6898L44.9087 23.0517L55.688 20.1734L66.552 17.535L71.737 38.5504L71.7441 38.5575Z" fill="url(#paint17_linear_1688_141)"/>
<path d="M98.1069 32.2226L95.0311 32.9633L91.0806 15.0025L75.6806 18.6991L77.677 27.101L81.169 26.2615L79.9627 21.0976L89.705 18.7626L92.9712 33.4572L71.7442 38.5576L64.9507 11.0379L92.1106 4.51953L92.8019 7.70817L68.8942 13.4435L74.051 34.6494L89.1759 31.0163L87.2923 22.692L83.8215 23.5244L85.0137 28.6883L75.3279 31.0163L71.7795 16.2865L93.5285 11.0661L98.1069 32.2226Z" fill="url(#paint18_linear_1688_141)"/>
<path d="M118.876 32.2226L115.8 31.4818L119.63 13.4999L108.491 10.8262L102.566 12.2512L104.315 20.7025L107.405 19.9618L106.834 14.6498L108.491 14.2547L116.844 16.2582L113.74 30.988L108.491 29.7253L98.1072 32.2226L92.1108 4.51948L108.491 0.597168L124.872 4.51948L124.188 7.70812L108.491 3.94806L95.9626 6.95329L100.513 28.2932L108.491 26.3744L111.32 27.0587L113.049 18.6991L109.804 17.916L109.232 23.2281L108.491 23.0517L101.881 24.639L98.7562 9.81036L108.491 7.47532L123.461 11.0661L118.876 32.2226Z" fill="url(#paint19_linear_1688_141)"/>
<path d="M145.245 38.5576L142.162 37.8168L146.508 19.9478L131.115 16.2512L129.21 24.6743L132.702 25.5138L133.895 20.3499L143.63 22.6849L140.11 37.323L118.875 32.2226L124.872 4.51953L152.032 11.0379L151.256 14.2054L127.348 8.46301L122.657 29.7817L137.782 33.4078L139.75 25.1046L136.279 24.2722L135.08 29.4361L125.394 27.1081L128.681 12.3218L150.43 17.5351L145.245 38.5576Z" fill="url(#paint20_linear_1688_141)"/>
<path d="M171.579 45.3299L168.504 44.5115L173.287 26.7553L157.999 22.706L155.855 31.0727C157.019 31.3408 158.176 31.6512 159.34 31.9686L160.673 26.84L170.345 29.4219L166.451 43.9683L155.862 41.1395L145.252 38.5646L152.038 11.0449C161.132 13.126 170.056 15.6021 179.015 17.9866L178.161 21.1329C170.246 19.073 162.423 16.7873 154.423 14.9672L149.125 36.1378C154.169 37.2948 159.199 38.6281 164.222 39.9966L166.408 31.7429L162.959 30.8187L161.618 35.9474C158.409 35.0655 155.192 34.2331 151.954 33.4853L155.664 18.7908C162.931 20.4839 170.063 22.5649 177.265 24.4414L171.586 45.3299H171.579Z" fill="url(#paint21_linear_1688_141)"/>
<path d="M188.545 49.8588L201.766 34.4236C200.178 33.9227 198.549 33.4924 196.919 33.062L192.327 31.8346L184.687 29.7958L182.366 38.1131L185.844 39.0443L187.283 33.9439L197.223 36.5964L188.531 49.8518L171.586 45.3298L179.022 17.9795L192.461 21.5702L202.034 24.131C206.443 25.168 210.457 26.7906 214.64 28.1521L211.705 30.593C208.397 29.556 205.236 28.3144 201.815 27.4467L193.131 25.1257L181.293 21.9582L175.516 43.0019L189.582 46.7549L192.729 38.7621L189.498 37.9014L188.052 43.0019L178.408 40.427L182.443 25.8171L193.223 28.6953L200.757 30.7129C203.423 31.4536 205.991 32.3495 208.616 33.1538L188.553 49.8518L188.545 49.8588Z" fill="url(#paint22_linear_1688_141)"/>
<path d="M82.5943 92.9548C81.2257 94.3234 79.9629 95.819 78.8271 97.3851C79.4621 96.2211 80.5626 95.05 81.2257 94.3516C81.656 93.886 82.0934 93.4204 82.5943 92.9548Z" fill="url(#paint23_linear_1688_141)"/>
<path d="M86.9257 89.2229C85.3949 90.3587 83.9275 91.6214 82.5942 92.9547C83.9628 91.5579 85.3949 90.2881 86.9257 89.2229Z" fill="url(#paint24_linear_1688_141)"/>
<path d="M99.0875 83.4594C98.3186 83.657 97.5567 83.8898 96.7878 84.1578C96.1246 84.3554 95.4545 84.6234 94.7913 84.8915C94.2552 85.089 93.7614 85.3218 93.2605 85.5546C93.0912 85.6181 92.9642 85.6887 92.8302 85.7522C92.3293 85.985 91.8284 86.2178 91.3276 86.4858C90.862 86.7539 90.3611 87.022 89.8955 87.283C92.8302 85.4488 95.9271 84.2143 99.0946 83.4524L99.0875 83.4594Z" fill="url(#paint25_linear_1688_141)"/>
<path d="M107.715 155.472C107.179 155.472 106.65 155.472 106.149 155.437C97.1548 155.07 88.1532 151.373 81.2257 143.606C80.4285 142.774 78.8624 141.038 78.2275 139.472C78.6931 140.171 79.194 140.869 79.7584 141.539C80.2592 142.202 80.7883 142.837 81.388 143.472C81.9241 144.107 82.552 144.742 83.1869 145.342C83.7865 145.941 84.4214 146.506 85.0845 147.042C86.3191 148.072 87.6524 149.038 89.0139 149.906C89.3102 150.103 89.6135 150.273 89.9451 150.47C90.2484 150.668 90.5447 150.837 90.8763 151.006C91.5112 151.373 92.1461 151.705 92.8092 152.008C93.4723 152.311 94.1425 152.608 94.8056 152.876C95.2712 153.045 95.7016 153.207 96.1742 153.377C97.7756 153.941 99.4757 154.407 101.176 154.773C101.91 154.907 102.643 155.041 103.405 155.14C104.103 155.239 104.802 155.31 105.536 155.373C106.234 155.408 106.968 155.437 107.701 155.472H107.715Z" fill="url(#paint26_linear_1688_141)"/>
<path d="M109.119 155.472C108.922 155.507 108.717 155.507 108.484 155.507C108.315 155.507 108.153 155.472 107.983 155.472H109.119Z" fill="url(#paint27_linear_1688_141)"/>
<path d="M143.51 129.78C140.942 138.478 135.312 145.307 128.244 149.744C135.439 145.109 140.907 138.083 143.51 129.78Z" fill="url(#paint28_linear_1688_141)"/>
<path d="M74.291 105.752C73.5573 107.586 72.9929 109.519 72.5908 111.487C72.5908 111.353 72.6261 111.219 72.6543 111.085C72.8518 110.154 73.4867 107.353 74.2839 105.752H74.291Z" fill="url(#paint29_linear_1688_141)"/>
<path d="M74.693 133.01C74.0934 132.312 73.8606 131.176 73.529 130.174C72.6613 127.543 72.1604 124.742 71.9629 121.914C72.2945 125.815 73.2609 129.511 74.693 133.01Z" fill="url(#paint30_linear_1688_141)"/>
<path d="M108.484 82.2251C107.715 82.2251 107.052 82.2603 106.318 82.3238C119.249 81.7595 132.11 88.1579 139.305 99.0501C132.773 88.9198 121.408 82.218 108.484 82.218V82.2251Z" fill="url(#paint31_linear_1688_141)"/>
<path d="M179.559 57.8868C179.559 57.8868 170.959 55.3543 146.438 49.0546C125.613 43.6861 113.782 41.0547 109.916 40.2223C108.95 40.0248 108.484 39.926 108.484 39.926C108.484 39.926 107.581 40.0953 105.684 40.5257C100.816 41.5909 89.3524 44.2222 70.5592 49.0546C46.0024 55.3543 37.403 57.8868 37.403 57.8868C37.403 57.8868 35.6041 68.8848 37.7346 89.745C37.7346 89.9778 37.7698 90.2106 37.798 90.4787C38.1296 93.9424 38.5952 97.6461 39.1948 101.611C39.1948 101.844 39.2583 102.076 39.2936 102.309C40.4576 110.076 42.1225 118.803 44.4928 128.467C52.5914 161.856 77.4162 184.487 101.014 195.012C103.511 196.148 106.015 197.143 108.477 197.975C110.079 197.439 111.673 196.811 113.31 196.141C113.345 196.176 113.345 196.141 113.373 196.106C137.697 186.11 164.06 163.084 172.49 128.46C183.622 82.6764 179.551 57.8798 179.551 57.8798L179.559 57.8868ZM78.2204 139.465V139.43C78.2204 139.43 78.1851 139.395 78.1851 139.366C78.1851 139.366 78.1851 139.331 78.1499 139.331C76.7813 137.398 75.6808 135.296 74.7143 133.102H74.9119V105.54L74.4462 105.307C75.5468 102.507 77.0141 99.84 78.7425 97.4415L78.8059 97.378C78.8694 97.3145 78.9047 97.2087 78.9752 97.1452C78.1781 108.143 78.5731 132.672 79.2786 140.897C78.9118 140.432 78.5449 139.966 78.2134 139.465H78.2204ZM89.4865 150.195C89.3172 150.096 89.1831 149.998 89.0209 149.899C87.6523 149.031 86.319 148.065 85.0915 147.035L85.0562 146.999V94.2811C85.0562 92.9478 84.8869 91.9178 84.5906 91.1136C85.3243 90.4505 86.1215 89.8156 86.9257 89.2159C87.4266 88.8491 87.9556 88.4823 88.4918 88.1507C88.8939 87.8826 89.3242 87.6145 89.7263 87.3817L89.4935 150.195H89.4865ZM116.244 134.499C113.613 135.599 110.481 134.732 108.682 137.031V155.458H107.983C107.885 155.493 107.786 155.458 107.715 155.458C106.982 155.423 106.248 155.394 105.55 155.359C105.084 155.324 104.618 155.26 104.181 155.225V135.931C104.181 135.367 100.647 133.398 99.6802 133.095V154.386C98.481 154.089 97.317 153.751 96.1812 153.356C95.7156 153.186 95.2782 153.024 94.8126 152.855C94.5446 152.756 94.2483 152.622 93.9802 152.488C93.6769 144.46 94.7139 135.896 94.079 128.03C93.7756 124.764 91.8497 122.062 91.7439 119C91.6099 115.367 93.7756 112.468 94.079 108.933C94.6786 101.3 93.7756 93.0677 93.9449 85.2724C94.213 85.1384 94.4811 85.0044 94.7774 84.8703C95.4123 84.6375 96.0119 84.4047 96.6115 84.2072C97.444 83.9391 98.2411 83.6429 99.0806 83.4383C99.2781 83.403 99.4827 83.3395 99.6802 83.3042V103.833L104.012 102.535L104.28 101.068L104.082 82.5071C104.28 82.4436 104.513 82.4436 104.717 82.4083H104.752C105.218 82.3448 105.684 82.3096 106.149 82.3096H106.319C107.116 82.2743 107.885 82.2743 108.682 82.3096V101.604C127.242 100.87 133.443 127.331 116.244 134.492V134.499Z" fill="url(#paint32_linear_1688_141)"/>
<path d="M267.96 74.0196L264.786 93.7156H243.376L261.764 1.69312H291.857L310.476 93.7156H288.229L284.96 74.0196H267.96ZM282.129 56.2372C280.016 42.8099 277.975 27.8311 276.795 19.3731H276.093C275.184 28.1934 272.903 42.802 270.703 56.2372H282.129Z" fill="url(#paint33_linear_1688_141)"/>
<path d="M366.732 54.7173H338.52V76.642H370.455L367.96 93.7156H317.533V1.69312H368.015V18.9872H338.52V37.502H366.732V54.7173Z" fill="url(#paint34_linear_1688_141)"/>
<path d="M439.173 93.7155H423.433C423.066 91.2821 422.747 88.9983 422.66 86.4546C418.633 93.6132 411.68 95.4481 404.368 95.4481C385.773 95.4481 377.257 81.6743 377.257 48.291C377.257 11.8285 389.999 0.0471191 410.332 0.0471191C436.662 0.0471191 438.767 20.6094 438.998 27.7838H417.572C417.341 23.2949 416.711 16.7033 409.639 16.7033C401.657 16.7033 399.711 27.0199 399.711 48.4328C399.711 69.8456 401.617 78.8313 409.32 78.8313C415.826 78.8313 417.764 73.4525 417.764 63.5296V57.639H408.602V41.0379H439.181V93.7155H439.173Z" fill="url(#paint35_linear_1688_141)"/>
<path d="M473.197 1.69312V93.7156H451.788V1.69312H473.197Z" fill="url(#paint36_linear_1688_141)"/>
<path d="M504.184 67.0736C504.726 74.6339 506.903 79.8316 513.298 79.8316C519.693 79.8316 521.503 75.7049 521.503 70.4679C521.503 64.1047 518.266 60.356 507.302 54.804C491.115 46.5507 485.007 39.589 485.007 26.0593C485.007 10.3166 494.743 0 513.202 0C534.915 0 541.127 13.3958 541.31 27.5319H520.698C520.339 21.1215 519.151 15.6167 513.075 15.6167C508.306 15.6167 506.177 18.6644 506.177 23.7991C506.177 28.9337 508.258 31.7925 518.393 36.7854C535.664 45.3773 543 52.6383 543 68.1132C543 83.5881 533.998 95.4482 513.083 95.4482C490.429 95.4482 483.516 82.6982 483.053 67.0736H504.184Z" fill="url(#paint37_linear_1688_141)"/>
<path d="M265.297 202.959L241 112.645H247.918L260 158.369C263.454 171.347 267.904 188.634 269.203 196.745H269.491C270.791 189.799 276.244 171.474 279.986 158.243L292.768 112.645H299.389L273.53 202.959H265.305H265.297Z" fill="#1E293B"/>
<path d="M317.451 112.645V202.959H310.986V112.645H317.451Z" fill="#1E293B"/>
<path d="M338.581 180.223C339.304 190.634 345.177 198.564 357.111 198.564C369.045 198.564 374.91 193.264 374.91 180.538C374.91 169.741 370.575 164.197 356.585 157.975C342.076 151.588 335.143 145.477 335.143 132.601C335.143 121.521 342.857 111.574 357.818 111.574C374.852 111.574 379.779 123.293 380.067 133.145H373.61C373.174 129.27 371.727 117.04 357.383 117.04C346.337 117.04 341.747 124.135 341.747 132.05C341.747 142.052 346.624 146.785 359.463 152.47C376.398 160.031 381.662 167.709 381.662 180.105C381.662 194.422 373.388 204.022 356.955 204.022C339.066 204.022 332.831 193.099 331.968 180.215H338.572L338.581 180.223Z" fill="#1E293B"/>
<path d="M403.351 112.645V202.959H396.886V112.645H403.351Z" fill="#1E293B"/>
<path d="M474.487 156.944C474.487 186.334 467.628 204.156 447.189 204.156C426.75 204.156 420.335 187.114 420.335 157.33C420.335 127.545 428.798 111.448 447.493 111.448C467.2 111.448 474.496 126.813 474.496 156.944H474.487ZM427.088 157.062C427.088 185.555 434.095 198.675 447.477 198.675C460.859 198.675 467.727 185.57 467.727 157.322C467.727 127.671 460.579 116.929 447.337 116.929C434.095 116.929 427.088 129.64 427.088 157.062Z" fill="#1E293B"/>
<path d="M491.463 202.959V112.645H500.527C532.094 183.137 535.853 191.004 537.152 194.603H537.3C536.716 181.656 536.437 167.875 536.437 153.282V112.653H543V202.967H534.381C501.531 129.42 498.191 121.946 497.171 118.741H497.023C497.747 130.136 497.887 145.871 497.887 162.173V202.967H491.463V202.959Z" fill="#1E293B"/>
<path d="M267.386 229.842L265.889 234.182H263.965L268.857 220.384H271.102L276.019 234.182H274.029L272.492 229.842H267.386ZM272.113 228.448L270.699 224.479C270.379 223.581 270.165 222.762 269.951 221.959H269.91C269.696 222.778 269.466 223.621 269.186 224.456L267.772 228.448H272.113Z" fill="#1E293B"/>
<path d="M284.274 220.384V234.182H282.416V220.384H284.274Z" fill="#1E293B"/>
<path d="M302.469 221.896H298.087V220.384H308.751V221.896H304.344V234.182H302.461V221.896H302.469Z" fill="#1E293B"/>
<path d="M316.496 220.384V226.157H323.469V220.384H325.352V234.182H323.469V227.708H316.496V234.182H314.638V220.384H316.496Z" fill="#1E293B"/>
<path d="M335.177 229.842L333.68 234.182H331.756L336.649 220.384H338.893L343.81 234.182H341.82L340.283 229.842H335.177ZM339.905 228.448L338.49 224.479C338.17 223.581 337.956 222.762 337.742 221.959H337.701C337.487 222.778 337.257 223.621 336.977 224.456L335.563 228.448H339.905Z" fill="#1E293B"/>
<path d="M351.292 221.896H346.91V220.384H357.574V221.896H353.167V234.182H351.284V221.896H351.292Z" fill="#1E293B"/>
<path d="M372.268 234.182V220.384H374.298L378.919 227.369C379.988 228.984 380.819 230.441 381.509 231.85L381.55 231.827C381.378 229.984 381.337 228.307 381.337 226.157V220.384H383.088V234.182H381.205L376.634 227.18C375.63 225.645 374.668 224.07 373.937 222.573L373.871 222.597C373.978 224.337 374.019 225.999 374.019 228.291V234.189H372.268V234.182Z" fill="#1E293B"/>
<path d="M398.068 227.716H392.469V232.693H398.71V234.19H390.611V220.392H398.389V221.888H392.469V226.251H398.068V227.724V227.716Z" fill="#1E293B"/>
<path d="M408.757 234.182L404.054 220.384H406.06L408.305 227.18C408.922 229.047 409.456 230.724 409.843 232.339H409.884C410.287 230.74 410.887 229 411.528 227.196L413.962 220.376H415.952L410.796 234.174H408.741L408.757 234.182Z" fill="#1E293B"/>
<path d="M429.263 227.716H423.664V232.693H429.904V234.19H421.806V220.392H429.584V221.888H423.664V226.251H429.263V227.724V227.716Z" fill="#1E293B"/>
<path d="M436.589 220.565C437.526 220.384 438.875 220.282 440.157 220.282C442.147 220.282 443.43 220.628 444.326 221.408C445.049 222.022 445.461 222.967 445.461 224.03C445.461 225.85 444.26 227.062 442.747 227.551V227.614C443.857 227.984 444.523 228.968 444.86 230.401C445.329 232.323 445.674 233.654 445.97 234.189H444.046C443.808 233.804 443.487 232.614 443.084 230.89C442.657 228.984 441.884 228.267 440.198 228.204H438.447V234.182H436.589V220.565ZM438.447 226.858H440.346C442.336 226.858 443.594 225.81 443.594 224.235C443.594 222.455 442.246 221.676 440.281 221.652C439.384 221.652 438.743 221.731 438.439 221.817V226.858H438.447Z" fill="#1E293B"/>
<path d="M461.173 220.565C461.987 220.4 463.27 220.282 464.569 220.282C466.427 220.282 467.628 220.589 468.524 221.282C469.272 221.817 469.724 222.636 469.724 223.715C469.724 225.046 468.804 226.212 467.291 226.747V226.787C468.656 227.117 470.259 228.196 470.259 230.244C470.259 231.433 469.765 232.331 469.042 233.008C468.039 233.89 466.411 234.3 464.059 234.3C462.777 234.3 461.79 234.221 461.173 234.134V220.557V220.565ZM463.032 226.22H464.717C466.682 226.22 467.841 225.235 467.841 223.904C467.841 222.29 466.559 221.652 464.676 221.652C463.821 221.652 463.328 221.715 463.032 221.778V226.22ZM463.032 232.835C463.393 232.898 463.928 232.914 464.594 232.914C466.518 232.914 468.294 232.236 468.294 230.228C468.294 228.346 466.608 227.566 464.569 227.566H463.032V232.827V232.835Z" fill="#1E293B"/>
<path d="M477.034 220.384H478.892V232.693H485.05V234.189H477.034V220.392V220.384Z" fill="#1E293B"/>
<path d="M493.264 220.384V234.182H491.406V220.384H493.264Z" fill="#1E293B"/>
<path d="M500.788 234.182V220.384H502.818L507.439 227.369C508.508 228.984 509.339 230.441 510.029 231.85L510.07 231.827C509.898 229.984 509.857 228.307 509.857 226.157V220.384H511.608V234.182H509.725L505.154 227.18C504.15 225.645 503.188 224.07 502.457 222.573L502.391 222.597C502.498 224.337 502.539 225.999 502.539 228.291V234.189H500.788V234.182Z" fill="#1E293B"/>
<path d="M519.131 220.384H520.99V227.039H521.055C521.442 226.503 521.828 226.015 522.19 225.566L526.597 220.384H528.908L523.695 226.243L529.319 234.189H527.115L522.371 227.409L521.006 228.921V234.182H519.148V220.384H519.131Z" fill="#1E293B"/>
<path d="M534.737 232.016C535.567 232.504 536.792 232.914 538.075 232.914C539.974 232.914 541.093 231.953 541.093 230.559C541.093 229.267 540.32 228.535 538.379 227.818C536.028 227.023 534.572 225.85 534.572 223.904C534.572 221.754 536.431 220.156 539.234 220.156C540.706 220.156 541.783 220.487 542.425 220.833L541.915 222.29C541.446 222.046 540.484 221.636 539.177 221.636C537.212 221.636 536.464 222.762 536.464 223.707C536.464 224.999 537.343 225.629 539.325 226.369C541.759 227.267 543 228.393 543 230.425C543 232.551 541.356 234.394 537.96 234.394C536.57 234.394 535.049 234.008 534.285 233.512L534.753 232.016H534.737Z" fill="#1E293B"/>
<defs>
<linearGradient id="paint0_linear_1688_141" x1="201.251" y1="-22.5416" x2="206.14" y2="257.565" gradientUnits="userSpaceOnUse">
<stop stop-color="#026EF6"/>
<stop offset="0.1" stop-color="#0469E8"/>
<stop offset="0.3" stop-color="#095CC5"/>
<stop offset="0.56" stop-color="#12478D"/>
<stop offset="0.88" stop-color="#1E2A3F"/>
<stop offset="1" stop-color="#231F20"/>
</linearGradient>
<linearGradient id="paint1_linear_1688_141" x1="199.445" y1="-22.5134" x2="204.341" y2="257.6" gradientUnits="userSpaceOnUse">
<stop stop-color="#026EF6"/>
<stop offset="0.1" stop-color="#0469E8"/>
<stop offset="0.3" stop-color="#095CC5"/>
<stop offset="0.56" stop-color="#12478D"/>
<stop offset="0.88" stop-color="#1E2A3F"/>
<stop offset="1" stop-color="#231F20"/>
</linearGradient>
<linearGradient id="paint2_linear_1688_141" x1="195.134" y1="-22.4358" x2="200.03" y2="257.671" gradientUnits="userSpaceOnUse">
<stop stop-color="#026EF6"/>
<stop offset="0.1" stop-color="#0469E8"/>
<stop offset="0.3" stop-color="#095CC5"/>
<stop offset="0.56" stop-color="#12478D"/>
<stop offset="0.88" stop-color="#1E2A3F"/>
<stop offset="1" stop-color="#231F20"/>
</linearGradient>
<linearGradient id="paint3_linear_1688_141" x1="188.595" y1="-22.323" x2="193.484" y2="257.791" gradientUnits="userSpaceOnUse">
<stop stop-color="#026EF6"/>
<stop offset="0.1" stop-color="#0469E8"/>
<stop offset="0.3" stop-color="#095CC5"/>
<stop offset="0.56" stop-color="#12478D"/>
<stop offset="0.88" stop-color="#1E2A3F"/>
<stop offset="1" stop-color="#231F20"/>
</linearGradient>
<linearGradient id="paint4_linear_1688_141" x1="178.07" y1="-22.1396" x2="182.966" y2="257.974" gradientUnits="userSpaceOnUse">
<stop stop-color="#026EF6"/>
<stop offset="0.1" stop-color="#0469E8"/>
<stop offset="0.3" stop-color="#095CC5"/>
<stop offset="0.56" stop-color="#12478D"/>
<stop offset="0.88" stop-color="#1E2A3F"/>
<stop offset="1" stop-color="#231F20"/>
</linearGradient>
<linearGradient id="paint5_linear_1688_141" x1="162.162" y1="-21.8644" x2="167.051" y2="258.249" gradientUnits="userSpaceOnUse">
<stop stop-color="#026EF6"/>
<stop offset="0.1" stop-color="#0469E8"/>
<stop offset="0.3" stop-color="#095CC5"/>
<stop offset="0.56" stop-color="#12478D"/>
<stop offset="0.88" stop-color="#1E2A3F"/>
<stop offset="1" stop-color="#231F20"/>
</linearGradient>
<linearGradient id="paint6_linear_1688_141" x1="141.852" y1="-21.5047" x2="146.748" y2="258.602" gradientUnits="userSpaceOnUse">
<stop stop-color="#026EF6"/>
<stop offset="0.1" stop-color="#0469E8"/>
<stop offset="0.3" stop-color="#095CC5"/>
<stop offset="0.56" stop-color="#12478D"/>
<stop offset="0.88" stop-color="#1E2A3F"/>
<stop offset="1" stop-color="#231F20"/>
</linearGradient>
<linearGradient id="paint7_linear_1688_141" x1="120.357" y1="-21.1306" x2="125.253" y2="258.976" gradientUnits="userSpaceOnUse">
<stop stop-color="#026EF6"/>
<stop offset="0.1" stop-color="#0469E8"/>
<stop offset="0.3" stop-color="#095CC5"/>
<stop offset="0.56" stop-color="#12478D"/>
<stop offset="0.88" stop-color="#1E2A3F"/>
<stop offset="1" stop-color="#231F20"/>
</linearGradient>
<linearGradient id="paint8_linear_1688_141" x1="88.1179" y1="-20.5663" x2="93.0066" y2="259.54" gradientUnits="userSpaceOnUse">
<stop stop-color="#026EF6"/>
<stop offset="0.1" stop-color="#0469E8"/>
<stop offset="0.3" stop-color="#095CC5"/>
<stop offset="0.56" stop-color="#12478D"/>
<stop offset="0.88" stop-color="#1E2A3F"/>
<stop offset="1" stop-color="#231F20"/>
</linearGradient>
<linearGradient id="paint9_linear_1688_141" x1="67.3635" y1="-20.2067" x2="72.2593" y2="259.907" gradientUnits="userSpaceOnUse">
<stop stop-color="#026EF6"/>
<stop offset="0.1" stop-color="#0469E8"/>
<stop offset="0.3" stop-color="#095CC5"/>
<stop offset="0.56" stop-color="#12478D"/>
<stop offset="0.88" stop-color="#1E2A3F"/>
<stop offset="1" stop-color="#231F20"/>
</linearGradient>
<linearGradient id="paint10_linear_1688_141" x1="47.7307" y1="-19.8609" x2="52.6194" y2="260.246" gradientUnits="userSpaceOnUse">
<stop stop-color="#026EF6"/>
<stop offset="0.1" stop-color="#0469E8"/>
<stop offset="0.3" stop-color="#095CC5"/>
<stop offset="0.56" stop-color="#12478D"/>
<stop offset="0.88" stop-color="#1E2A3F"/>
<stop offset="1" stop-color="#231F20"/>
</linearGradient>
<linearGradient id="paint11_linear_1688_141" x1="32.627" y1="-19.6" x2="37.5158" y2="260.514" gradientUnits="userSpaceOnUse">
<stop stop-color="#026EF6"/>
<stop offset="0.1" stop-color="#0469E8"/>
<stop offset="0.3" stop-color="#095CC5"/>
<stop offset="0.56" stop-color="#12478D"/>
<stop offset="0.88" stop-color="#1E2A3F"/>
<stop offset="1" stop-color="#231F20"/>
</linearGradient>
<linearGradient id="paint12_linear_1688_141" x1="22.9832" y1="-19.4307" x2="27.8791" y2="260.683" gradientUnits="userSpaceOnUse">
<stop stop-color="#026EF6"/>
<stop offset="0.1" stop-color="#0469E8"/>
<stop offset="0.3" stop-color="#095CC5"/>
<stop offset="0.56" stop-color="#12478D"/>
<stop offset="0.88" stop-color="#1E2A3F"/>
<stop offset="1" stop-color="#231F20"/>
</linearGradient>
<linearGradient id="paint13_linear_1688_141" x1="17.3682" y1="-19.3319" x2="22.2569" y2="260.775" gradientUnits="userSpaceOnUse">
<stop stop-color="#026EF6"/>
<stop offset="0.1" stop-color="#0469E8"/>
<stop offset="0.3" stop-color="#095CC5"/>
<stop offset="0.56" stop-color="#12478D"/>
<stop offset="0.88" stop-color="#1E2A3F"/>
<stop offset="1" stop-color="#231F20"/>
</linearGradient>
<linearGradient id="paint14_linear_1688_141" x1="14.0243" y1="-19.2754" x2="18.913" y2="260.838" gradientUnits="userSpaceOnUse">
<stop stop-color="#026EF6"/>
<stop offset="0.1" stop-color="#0469E8"/>
<stop offset="0.3" stop-color="#095CC5"/>
<stop offset="0.56" stop-color="#12478D"/>
<stop offset="0.88" stop-color="#1E2A3F"/>
<stop offset="1" stop-color="#231F20"/>
</linearGradient>
<linearGradient id="paint15_linear_1688_141" x1="12.9448" y1="-19.2542" x2="17.8336" y2="260.852" gradientUnits="userSpaceOnUse">
<stop stop-color="#026EF6"/>
<stop offset="0.1" stop-color="#0469E8"/>
<stop offset="0.3" stop-color="#095CC5"/>
<stop offset="0.56" stop-color="#12478D"/>
<stop offset="0.88" stop-color="#1E2A3F"/>
<stop offset="1" stop-color="#231F20"/>
</linearGradient>
<linearGradient id="paint16_linear_1688_141" x1="22.9058" y1="-19.4306" x2="27.7945" y2="260.683" gradientUnits="userSpaceOnUse">
<stop stop-color="#026EF6"/>
<stop offset="0.1" stop-color="#0469E8"/>
<stop offset="0.3" stop-color="#095CC5"/>
<stop offset="0.56" stop-color="#12478D"/>
<stop offset="0.88" stop-color="#1E2A3F"/>
<stop offset="1" stop-color="#231F20"/>
</linearGradient>
<linearGradient id="paint17_linear_1688_141" x1="54.0161" y1="-19.9738" x2="58.9049" y2="260.14" gradientUnits="userSpaceOnUse">
<stop stop-color="#026EF6"/>
<stop offset="0.1" stop-color="#0469E8"/>
<stop offset="0.3" stop-color="#095CC5"/>
<stop offset="0.56" stop-color="#12478D"/>
<stop offset="0.88" stop-color="#1E2A3F"/>
<stop offset="1" stop-color="#231F20"/>
</linearGradient>
<linearGradient id="paint18_linear_1688_141" x1="80.7951" y1="-20.4393" x2="85.691" y2="259.667" gradientUnits="userSpaceOnUse">
<stop stop-color="#026EF6"/>
<stop offset="0.1" stop-color="#0469E8"/>
<stop offset="0.3" stop-color="#095CC5"/>
<stop offset="0.56" stop-color="#12478D"/>
<stop offset="0.88" stop-color="#1E2A3F"/>
<stop offset="1" stop-color="#231F20"/>
</linearGradient>
<linearGradient id="paint19_linear_1688_141" x1="108.047" y1="-20.9191" x2="112.943" y2="259.195" gradientUnits="userSpaceOnUse">
<stop stop-color="#026EF6"/>
<stop offset="0.1" stop-color="#0469E8"/>
<stop offset="0.3" stop-color="#095CC5"/>
<stop offset="0.56" stop-color="#12478D"/>
<stop offset="0.88" stop-color="#1E2A3F"/>
<stop offset="1" stop-color="#231F20"/>
</linearGradient>
<linearGradient id="paint20_linear_1688_141" x1="134.706" y1="-21.3846" x2="139.595" y2="258.729" gradientUnits="userSpaceOnUse">
<stop stop-color="#026EF6"/>
<stop offset="0.1" stop-color="#0469E8"/>
<stop offset="0.3" stop-color="#095CC5"/>
<stop offset="0.56" stop-color="#12478D"/>
<stop offset="0.88" stop-color="#1E2A3F"/>
<stop offset="1" stop-color="#231F20"/>
</linearGradient>
<linearGradient id="paint21_linear_1688_141" x1="161.252" y1="-21.8432" x2="166.147" y2="258.263" gradientUnits="userSpaceOnUse">
<stop stop-color="#026EF6"/>
<stop offset="0.1" stop-color="#0469E8"/>
<stop offset="0.3" stop-color="#095CC5"/>
<stop offset="0.56" stop-color="#12478D"/>
<stop offset="0.88" stop-color="#1E2A3F"/>
<stop offset="1" stop-color="#231F20"/>
</linearGradient>
<linearGradient id="paint22_linear_1688_141" x1="192.073" y1="-22.3864" x2="196.962" y2="257.727" gradientUnits="userSpaceOnUse">
<stop stop-color="#026EF6"/>
<stop offset="0.1" stop-color="#0469E8"/>
<stop offset="0.3" stop-color="#095CC5"/>
<stop offset="0.56" stop-color="#12478D"/>
<stop offset="0.88" stop-color="#1E2A3F"/>
<stop offset="1" stop-color="#231F20"/>
</linearGradient>
<linearGradient id="paint23_linear_1688_141" x1="78.6367" y1="-23.5152" x2="83.6383" y2="262.813" gradientUnits="userSpaceOnUse">
<stop stop-color="#026EF6"/>
<stop offset="0.1" stop-color="#0469E8"/>
<stop offset="0.3" stop-color="#095CC5"/>
<stop offset="0.56" stop-color="#12478D"/>
<stop offset="0.88" stop-color="#1E2A3F"/>
<stop offset="1" stop-color="#231F20"/>
</linearGradient>
<linearGradient id="paint24_linear_1688_141" x1="82.7565" y1="-23.5929" x2="87.7581" y2="262.743" gradientUnits="userSpaceOnUse">
<stop stop-color="#026EF6"/>
<stop offset="0.1" stop-color="#0469E8"/>
<stop offset="0.3" stop-color="#095CC5"/>
<stop offset="0.56" stop-color="#12478D"/>
<stop offset="0.88" stop-color="#1E2A3F"/>
<stop offset="1" stop-color="#231F20"/>
</linearGradient>
<linearGradient id="paint25_linear_1688_141" x1="92.5833" y1="-23.7621" x2="97.5849" y2="262.574" gradientUnits="userSpaceOnUse">
<stop stop-color="#026EF6"/>
<stop offset="0.1" stop-color="#0469E8"/>
<stop offset="0.3" stop-color="#095CC5"/>
<stop offset="0.56" stop-color="#12478D"/>
<stop offset="0.88" stop-color="#1E2A3F"/>
<stop offset="1" stop-color="#231F20"/>
</linearGradient>
<linearGradient id="paint26_linear_1688_141" x1="89.9804" y1="-23.7128" x2="94.982" y2="262.616" gradientUnits="userSpaceOnUse">
<stop stop-color="#026EF6"/>
<stop offset="0.1" stop-color="#0469E8"/>
<stop offset="0.3" stop-color="#095CC5"/>
<stop offset="0.56" stop-color="#12478D"/>
<stop offset="0.88" stop-color="#1E2A3F"/>
<stop offset="1" stop-color="#231F20"/>
</linearGradient>
<linearGradient id="paint27_linear_1688_141" x1="105.416" y1="-23.9988" x2="110.418" y2="262.354" gradientUnits="userSpaceOnUse">
<stop stop-color="#026EF6"/>
<stop offset="0.1" stop-color="#0469E8"/>
<stop offset="0.3" stop-color="#095CC5"/>
<stop offset="0.56" stop-color="#12478D"/>
<stop offset="0.88" stop-color="#1E2A3F"/>
<stop offset="1" stop-color="#231F20"/>
</linearGradient>
<linearGradient id="paint28_linear_1688_141" x1="133.005" y1="-24.4674" x2="138.007" y2="261.868" gradientUnits="userSpaceOnUse">
<stop stop-color="#026EF6"/>
<stop offset="0.1" stop-color="#0469E8"/>
<stop offset="0.3" stop-color="#095CC5"/>
<stop offset="0.56" stop-color="#12478D"/>
<stop offset="0.88" stop-color="#1E2A3F"/>
<stop offset="1" stop-color="#231F20"/>
</linearGradient>
<linearGradient id="paint29_linear_1688_141" x1="71.1376" y1="-23.3883" x2="76.1393" y2="262.948" gradientUnits="userSpaceOnUse">
<stop stop-color="#026EF6"/>
<stop offset="0.1" stop-color="#0469E8"/>
<stop offset="0.3" stop-color="#095CC5"/>
<stop offset="0.56" stop-color="#12478D"/>
<stop offset="0.88" stop-color="#1E2A3F"/>
<stop offset="1" stop-color="#231F20"/>
</linearGradient>
<linearGradient id="paint30_linear_1688_141" x1="70.6931" y1="-23.3812" x2="75.6947" y2="262.954" gradientUnits="userSpaceOnUse">
<stop stop-color="#026EF6"/>
<stop offset="0.1" stop-color="#0469E8"/>
<stop offset="0.3" stop-color="#095CC5"/>
<stop offset="0.56" stop-color="#12478D"/>
<stop offset="0.88" stop-color="#1E2A3F"/>
<stop offset="1" stop-color="#231F20"/>
</linearGradient>
<linearGradient id="paint31_linear_1688_141" x1="120.808" y1="-24.2558" x2="125.81" y2="262.08" gradientUnits="userSpaceOnUse">
<stop stop-color="#026EF6"/>
<stop offset="0.1" stop-color="#0469E8"/>
<stop offset="0.3" stop-color="#095CC5"/>
<stop offset="0.56" stop-color="#12478D"/>
<stop offset="0.88" stop-color="#1E2A3F"/>
<stop offset="1" stop-color="#231F20"/>
</linearGradient>
<linearGradient id="paint32_linear_1688_141" x1="106.834" y1="-24.009" x2="111.835" y2="262.327" gradientUnits="userSpaceOnUse">
<stop stop-color="#026EF6"/>
<stop offset="0.1" stop-color="#0469E8"/>
<stop offset="0.3" stop-color="#095CC5"/>
<stop offset="0.56" stop-color="#12478D"/>
<stop offset="0.88" stop-color="#1E2A3F"/>
<stop offset="1" stop-color="#231F20"/>
</linearGradient>
<linearGradient id="paint33_linear_1688_141" x1="276.922" y1="-11.4192" x2="276.922" y2="228.422" gradientUnits="userSpaceOnUse">
<stop stop-color="#026EF6"/>
<stop offset="0.1" stop-color="#0469E8"/>
<stop offset="0.3" stop-color="#095CC5"/>
<stop offset="0.56" stop-color="#12478D"/>
<stop offset="0.88" stop-color="#1E2A3F"/>
<stop offset="1" stop-color="#231F20"/>
</linearGradient>
<linearGradient id="paint34_linear_1688_141" x1="343.99" y1="-11.4192" x2="343.99" y2="228.422" gradientUnits="userSpaceOnUse">
<stop stop-color="#026EF6"/>
<stop offset="0.1" stop-color="#0469E8"/>
<stop offset="0.3" stop-color="#095CC5"/>
<stop offset="0.56" stop-color="#12478D"/>
<stop offset="0.88" stop-color="#1E2A3F"/>
<stop offset="1" stop-color="#231F20"/>
</linearGradient>
<linearGradient id="paint35_linear_1688_141" x1="408.211" y1="-11.4193" x2="408.211" y2="228.422" gradientUnits="userSpaceOnUse">
<stop stop-color="#026EF6"/>
<stop offset="0.1" stop-color="#0469E8"/>
<stop offset="0.3" stop-color="#095CC5"/>
<stop offset="0.56" stop-color="#12478D"/>
<stop offset="0.88" stop-color="#1E2A3F"/>
<stop offset="1" stop-color="#231F20"/>
</linearGradient>
<linearGradient id="paint36_linear_1688_141" x1="462.488" y1="-11.4192" x2="462.488" y2="228.422" gradientUnits="userSpaceOnUse">
<stop stop-color="#026EF6"/>
<stop offset="0.1" stop-color="#0469E8"/>
<stop offset="0.3" stop-color="#095CC5"/>
<stop offset="0.56" stop-color="#12478D"/>
<stop offset="0.88" stop-color="#1E2A3F"/>
<stop offset="1" stop-color="#231F20"/>
</linearGradient>
<linearGradient id="paint37_linear_1688_141" x1="513.027" y1="-11.4191" x2="513.027" y2="228.422" gradientUnits="userSpaceOnUse">
<stop stop-color="#026EF6"/>
<stop offset="0.1" stop-color="#0469E8"/>
<stop offset="0.3" stop-color="#095CC5"/>
<stop offset="0.56" stop-color="#12478D"/>
<stop offset="0.88" stop-color="#1E2A3F"/>
<stop offset="1" stop-color="#231F20"/>
</linearGradient>
</defs>
</svg>
